<svg xmlns="http://www.w3.org/2000/svg" viewBox="0 0 64 64">
  <path fill="#00758F" d="M32 62.603c-16.896 0-30.603-13.707-30.603-30.603C1.397 15.104 15.104 1.397 32 1.397c16.896 0 30.603 13.707 30.603 30.603 0 16.896-13.707 30.603-30.603 30.603z"/>
  <path fill="#fff" d="M16.741 27.985c-.389 0-.731.067-1.026.2v.05h.05c.201.389.549.663.828.994.2.379.379.758.579 1.137.033-.033.05-.67.083-.1.252-.167.367-.435.367-.84-.103-.117-.117-.234-.201-.352-.101-.2-.336-.301-.68-.5zM45.584 38.456a7.55 7.55 0 0 0-.401-.96c-.101-.2-.252-.401-.368-.602l-.05-.05-.05.05c-.05.252-.034.501-.034.753 0 .25.084.501.168.752.067.25.251.367.451.501v-.05c.185-.2.286-.45.336-.702ZM28.414 22.57v.052h.285c.168.033.285.067.285.2 0 .117-.101.167-.252.201-.151.033-.368.033-.553.05v-.05c-.101-.1-.151-.234-.151-.401 0-.167.05-.301.151-.401.15-.84.235-.151.385-.151.117 0 .252.034.368.084.101.05.185.15.185.267 0 .084-.05.117-.101.167-.67.067-.168.067-.25.1-.101.033-.201.067-.302.084zM32 4.655C16.915 4.655 4.655 16.915 4.655 32S16.915 59.345 32 59.345 59.345 47.085 59.345 32 47.085 4.655 32 4.655zM23.879 25.86c-1.022 0-1.74.142-2.38.335l-.212.952c.593-.237 1.663-.474 2.545-.474.831 0 1.425.17 1.425.853 0 .236-.51.308-.213.474-1.849.498-4.253.924-4.253 3.019 0 1.496 1.022 2.302 2.471 2.302.736 0 1.805-.332 2.47-.782h.07l.735 1.068h1.85v-5.131c0-1.973-1.473-2.616-3.473-2.616h-.035zm6.16 0c-1.947 0-3.324 1.496-3.324 3.588 0 2.069 1.447 3.303 3.184 3.303.783 0 1.424-.143 1.874-.356l-.214-.924c-.474.142-.972.214-1.449.214-1.447 0-2.097-1.118-2.097-2.331 0-1.473.735-2.45 2.097-2.45 1.377 0 1.78 1.09 1.78 1.9 0 .332-.24.403-.192.474H28.86c-.451.213-.972.356-1.56.356-.688 0-1.353-.38-1.353-1.116 0-.927.878-1.496 2.824-1.496h3.349v-.974c0-1.425-1.022-2.188-2.068-2.188h-.012zm17.78 0c-.855 0-1.685.261-2.233.663h-.07v2.759c.523-.355 1.214-.663 1.946-.663 1.4 0 1.899.783 1.899 1.9v3.658h1.944v-4.252c0-1.947-1.142-3.066-3.447-3.066h-.037zm-27.52.19v8.365h1.945v-3.043c.592.404 1.424.711 2.186.711 1.947 0 3.28-1.615 3.28-3.588 0-1.899-1.025-3.256-3.163-3.256-.877 0-1.78.31-2.518.924h-.07l-.26-.829h-1.377l-.023.716zm8.245 0l1.993 8.365h2.402l1.237-5.178h.072l1.234 5.178h2.438l1.956-8.365h-1.828l-1.115 5.131h-.093l-1.258-5.131h-2.279l-1.213 5.131h-.094l-1.137-5.131h-2.315zm21.088 0v8.365h1.944v-8.365h-1.944zm-21.79 3.827c.95 0 1.45.735 1.45 1.875 0 .877-.452 1.92-1.45 1.92-.428 0-.925-.19-1.258-.428v-3.021c.357-.203.855-.346 1.258-.346zm-7.2.117c.261 0 .427.094.427.332 0 .546-1.066.617-1.757.783v-.285c0-.594.594-.83 1.33-.83z"/>
</svg> 