<svg xmlns="http://www.w3.org/2000/svg" viewBox="0 0 64 64">
  <path fill="#336791" d="M32 62.603c-16.896 0-30.603-13.707-30.603-30.603C1.397 15.104 15.104 1.397 32 1.397c16.896 0 30.603 13.707 30.603 30.603 0 16.896-13.707 30.603-30.603 30.603z"/>
  <path fill="#fff" d="M39.57 44.197c-1.09 0-2.048-.252-2.858-.756-.809-.504-1.418-1.197-1.828-2.079-.409-.882-.614-1.905-.614-3.069 0-1.213.205-2.268.614-3.165.409-.896 1.009-1.595 1.797-2.095.788-.5 1.737-.75 2.847-.75.944 0 1.804.209 2.58.628.775.419 1.389 1.023 1.844 1.81.454.788.682 1.709.682 2.763v.661h-8.834v-.661c0-1.113.291-1.991.872-2.636.581-.644 1.369-.966 2.363-.966.675 0 1.27.133 1.786.399s.92.661 1.213 1.184l1.481-1.026c-.346-.599-.835-1.063-1.465-1.392-.63-.33-1.409-.494-2.336-.494-1.14 0-2.138.249-2.995.746-.857.498-1.514 1.194-1.973 2.09-.459.896-.688 1.933-.688 3.111s.23 2.215.688 3.111c.459.896 1.116 1.592 1.973 2.089.857.498 1.855.746 2.995.746 1.113 0 2.061-.275 2.842-.825.781-.55 1.301-1.307 1.56-2.269h-1.775c-.172.518-.488.925-.947 1.219-.459.294-1.017.441-1.675.441z"/>
  <path fill="#fff" d="M47.172 44.086V31.25h-1.775v12.836h1.775zM28.93 33.656v10.43h1.775v-10.43h3.374V31.25h-8.523v2.406h3.374z"/>
</svg> 